<?xml version="1.0" encoding="UTF-8"?>
<svg xmlns="http://www.w3.org/2000/svg" width="24" height="24" viewBox="0 0 24 24">
  <path fill="#fff" fill-rule="evenodd" d="M12.01 2.5 22 12.712h-3.047v9.163h-13.9v-9.163H2L12.01 2.5Zm2.618 7.13c.508 0 .93.144 1.193.406.25.276.37.604.363 1.01 0 .597-.376 1.194-1.088 1.194-.719 0-.97-.446-1.147-.866-.152-.367-.29-.597-.502-.597-.553 0-1.404 1.253-1.622 2.814-.02.25-.046.82-.046 1.41v1.955c0 1.115.119 1.574.31 1.98.132.243.257.375.402.427.198.085.343.111.541.131l.086.007v.275H8.264v-.275l.093-.007c.224-.026.422-.079.58-.15.284-.145.422-.276.554-.703.072-.439.086-1.095.086-1.574v-4.69c0-.354 0-1.18-.066-1.462a.825.825 0 0 0-.37-.57c-.23-.165-.48-.19-.745-.21l-.085-.007v-.275h3.25c.172 0 .251.118.251.23a71.547 71.547 0 0 1-.024 1.212l-.015.729c.342-.919.758-1.391 1.12-1.739l.007-.006c.363-.302.89-.65 1.728-.65Z" clip-rule="evenodd"/>
</svg>
